<svg width="474" height="224" viewBox="0 0 474 224" fill="none" xmlns="http://www.w3.org/2000/svg">
<rect width="474" height="224" rx="112" fill="black"/>
<circle cx="102" cy="112" r="69" fill="white"/>
<path d="M340.734 152.516C350.991 152.504 360.877 148.678 368.469 141.781C367.578 141.781 366.687 141.781 365.797 141.781C357.637 141.773 349.639 139.501 342.693 135.219C335.747 130.936 330.125 124.811 326.453 117.524C322.78 110.237 321.201 102.075 321.891 93.9438C322.58 85.813 325.512 78.0329 330.359 71.4688C320.678 74.0041 312.252 79.9773 306.654 88.2724C301.056 96.5675 298.669 106.617 299.94 116.543C301.211 126.47 306.052 135.594 313.56 142.211C321.067 148.828 330.727 152.485 340.734 152.5V152.516Z" fill="white"/>
<path d="M351.828 84.375C351.657 84.3426 351.495 84.2725 351.355 84.1698C351.214 84.0671 351.098 83.9343 351.016 83.7812L348.281 78.8281L345.563 83.7812C345.48 83.9343 345.364 84.0671 345.223 84.1698C345.083 84.2725 344.921 84.3426 344.75 84.375L339.203 85.4375L343.063 89.5625C343.185 89.6864 343.277 89.8369 343.331 90.0023C343.385 90.1677 343.4 90.3434 343.375 90.5156L342.672 96.1094L347.781 93.7187C347.937 93.6416 348.108 93.6015 348.281 93.6015C348.455 93.6015 348.626 93.6416 348.781 93.7187L353.906 96.1094L353.203 90.5156C353.178 90.3447 353.192 90.1703 353.243 90.0054C353.295 89.8404 353.382 89.6891 353.5 89.5625L357.375 85.4375L351.828 84.375ZM376.094 107.391L375.641 103.766C375.618 103.593 375.634 103.418 375.688 103.253C375.742 103.088 375.833 102.938 375.953 102.813L378.438 100.156L374.859 99.5C374.689 99.4646 374.529 99.3933 374.389 99.2909C374.249 99.1885 374.132 99.0574 374.047 98.9063L372.297 95.7813L370.531 98.9063C370.451 99.0582 370.338 99.1904 370.2 99.2931C370.062 99.3958 369.903 99.4665 369.734 99.5L366.156 100.172L368.688 102.813C368.805 102.94 368.894 103.09 368.948 103.255C369.002 103.419 369.02 103.594 369 103.766L368.547 107.391L371.844 105.828C372.001 105.756 372.171 105.719 372.344 105.719C372.516 105.719 372.687 105.756 372.844 105.828L376.094 107.391ZM345.719 117.094C345.835 117.221 345.922 117.372 345.974 117.537C346.025 117.702 346.039 117.876 346.016 118.047L345.563 121.656L348.859 120.094C349.016 120.02 349.187 119.983 349.359 119.984C349.532 119.981 349.704 120.019 349.859 120.094L353.156 121.656L352.703 118.047C352.683 117.875 352.7 117.7 352.754 117.536C352.808 117.371 352.897 117.22 353.016 117.094L355.516 114.438L351.938 113.75C351.768 113.718 351.608 113.65 351.468 113.55C351.327 113.451 351.21 113.321 351.125 113.172L349.359 109.969L347.609 113.172C347.524 113.321 347.407 113.451 347.267 113.55C347.126 113.65 346.966 113.718 346.797 113.75L343.219 114.438L345.719 117.094Z" fill="white"/>
</svg>
