<svg width="474" height="224" viewBox="0 0 474 224" fill="none" xmlns="http://www.w3.org/2000/svg">
<rect width="474" height="224" rx="112" transform="matrix(-1 0 0 1 474 0)" fill="white"/>
<circle r="69" transform="matrix(-1 0 0 1 372 112)" fill="black"/>
<g clip-path="url(#clip0_5_12)">
<path fill-rule="evenodd" clip-rule="evenodd" d="M135 134.917C122.343 134.917 112.083 124.657 112.083 112C112.083 99.3435 122.343 89.0833 135 89.0833C147.657 89.0833 157.917 99.3435 157.917 112C157.917 124.657 147.657 134.917 135 134.917ZM135 141.167C118.892 141.167 105.833 128.108 105.833 112C105.833 95.8917 118.892 82.8333 135 82.8333C151.108 82.8333 164.167 95.8917 164.167 112C164.167 128.108 151.108 141.167 135 141.167Z" fill="black"/>
<path fill-rule="evenodd" clip-rule="evenodd" d="M85 112C85 113.726 86.3991 115.125 88.125 115.125L98.5417 115.125C100.268 115.125 101.667 113.726 101.667 112C101.667 110.274 100.268 108.875 98.5417 108.875L88.125 108.875C86.3991 108.875 85 110.274 85 112ZM168.333 112C168.333 113.726 169.732 115.125 171.458 115.125H181.875C183.601 115.125 185 113.726 185 112C185 110.274 183.601 108.875 181.875 108.875H171.458C169.732 108.875 168.333 110.274 168.333 112Z" fill="black"/>
<path fill-rule="evenodd" clip-rule="evenodd" d="M99.6452 76.6451C98.4248 77.8655 98.4248 79.8442 99.6452 81.0646L107.011 88.4303C108.231 89.6506 110.21 89.6506 111.43 88.4303C112.651 87.2099 112.651 85.2312 111.43 84.0108L104.065 76.6451C102.844 75.4248 100.866 75.4248 99.6452 76.6451ZM158.571 135.571C157.35 136.791 157.35 138.77 158.571 139.99L165.936 147.356C167.157 148.576 169.135 148.576 170.356 147.356C171.576 146.135 171.576 144.157 170.356 142.936L162.99 135.571C161.77 134.35 159.791 134.35 158.571 135.571Z" fill="black"/>
<path fill-rule="evenodd" clip-rule="evenodd" d="M135 62C133.274 62 131.875 63.3991 131.875 65.125L131.875 75.5417C131.875 77.2676 133.274 78.6667 135 78.6667C136.726 78.6667 138.125 77.2676 138.125 75.5417L138.125 65.125C138.125 63.3991 136.726 62 135 62ZM135 145.333C133.274 145.333 131.875 146.732 131.875 148.458V158.875C131.875 160.601 133.274 162 135 162C136.726 162 138.125 160.601 138.125 158.875V148.458C138.125 146.732 136.726 145.333 135 145.333Z" fill="black"/>
<path fill-rule="evenodd" clip-rule="evenodd" d="M170.355 76.6451C169.134 75.4248 167.156 75.4248 165.935 76.6451L158.57 84.0108C157.349 85.2312 157.349 87.2099 158.57 88.4303C159.79 89.6507 161.769 89.6507 162.989 88.4303L170.355 81.0646C171.575 79.8442 171.575 77.8655 170.355 76.6451ZM111.429 135.571C110.209 134.35 108.23 134.35 107.01 135.571L99.6442 142.936C98.4238 144.157 98.4238 146.135 99.6442 147.356C100.865 148.576 102.843 148.576 104.064 147.356L111.429 139.99C112.65 138.77 112.65 136.791 111.429 135.571Z" fill="black"/>
</g>
<defs>
<clipPath id="clip0_5_12">
<rect width="100" height="100" fill="white" transform="matrix(-1 0 0 1 185 62)"/>
</clipPath>
</defs>
</svg>
